<mxfile host="app.diagrams.net" modified="2023-10-17T04:38:13.706Z" agent="Mozilla/5.0 (Windows NT 10.0; Win64; x64; rv:109.0) Gecko/20100101 Firefox/118.0" etag="niLBfL0B1PKWVeeZSxAq" version="22.0.4" type="github">
  <diagram id="C5RBs43oDa-KdzZeNtuy" name="Page-1">
    <mxGraphModel dx="880" dy="425" grid="1" gridSize="10" guides="1" tooltips="1" connect="1" arrows="1" fold="1" page="1" pageScale="1" pageWidth="827" pageHeight="1169" math="0" shadow="0">
      <root>
        <mxCell id="WIyWlLk6GJQsqaUBKTNV-0" />
        <mxCell id="WIyWlLk6GJQsqaUBKTNV-1" parent="WIyWlLk6GJQsqaUBKTNV-0" />
        <mxCell id="4YXhwaPJJYOt4yHIs_GL-13" value="" style="edgeStyle=orthogonalEdgeStyle;rounded=0;orthogonalLoop=1;jettySize=auto;html=1;" edge="1" parent="WIyWlLk6GJQsqaUBKTNV-1" source="4YXhwaPJJYOt4yHIs_GL-11" target="4YXhwaPJJYOt4yHIs_GL-12">
          <mxGeometry relative="1" as="geometry" />
        </mxCell>
        <mxCell id="4YXhwaPJJYOt4yHIs_GL-11" value="start" style="strokeWidth=2;html=1;shape=mxgraph.flowchart.terminator;whiteSpace=wrap;" vertex="1" parent="WIyWlLk6GJQsqaUBKTNV-1">
          <mxGeometry x="350" y="60" width="130" height="60" as="geometry" />
        </mxCell>
        <mxCell id="4YXhwaPJJYOt4yHIs_GL-15" value="" style="edgeStyle=orthogonalEdgeStyle;rounded=0;orthogonalLoop=1;jettySize=auto;html=1;" edge="1" parent="WIyWlLk6GJQsqaUBKTNV-1" source="4YXhwaPJJYOt4yHIs_GL-12" target="4YXhwaPJJYOt4yHIs_GL-14">
          <mxGeometry relative="1" as="geometry" />
        </mxCell>
        <mxCell id="4YXhwaPJJYOt4yHIs_GL-12" value="&lt;div&gt;Lo&lt;/div&gt;&lt;div&gt;phi&lt;/div&gt;&lt;div&gt;d&lt;br&gt;&lt;/div&gt;" style="rhombus;whiteSpace=wrap;html=1;strokeWidth=2;" vertex="1" parent="WIyWlLk6GJQsqaUBKTNV-1">
          <mxGeometry x="375" y="190" width="80" height="80" as="geometry" />
        </mxCell>
        <mxCell id="4YXhwaPJJYOt4yHIs_GL-17" value="" style="edgeStyle=orthogonalEdgeStyle;rounded=0;orthogonalLoop=1;jettySize=auto;html=1;" edge="1" parent="WIyWlLk6GJQsqaUBKTNV-1" source="4YXhwaPJJYOt4yHIs_GL-14" target="4YXhwaPJJYOt4yHIs_GL-16">
          <mxGeometry relative="1" as="geometry" />
        </mxCell>
        <mxCell id="4YXhwaPJJYOt4yHIs_GL-14" value="Lo = phi x d" style="whiteSpace=wrap;html=1;strokeWidth=2;" vertex="1" parent="WIyWlLk6GJQsqaUBKTNV-1">
          <mxGeometry x="355" y="360" width="120" height="60" as="geometry" />
        </mxCell>
        <mxCell id="4YXhwaPJJYOt4yHIs_GL-19" value="" style="edgeStyle=orthogonalEdgeStyle;rounded=0;orthogonalLoop=1;jettySize=auto;html=1;" edge="1" parent="WIyWlLk6GJQsqaUBKTNV-1" source="4YXhwaPJJYOt4yHIs_GL-16" target="4YXhwaPJJYOt4yHIs_GL-18">
          <mxGeometry relative="1" as="geometry" />
        </mxCell>
        <mxCell id="4YXhwaPJJYOt4yHIs_GL-16" value="Lo" style="shape=parallelogram;perimeter=parallelogramPerimeter;whiteSpace=wrap;html=1;fixedSize=1;strokeWidth=2;" vertex="1" parent="WIyWlLk6GJQsqaUBKTNV-1">
          <mxGeometry x="355" y="500" width="120" height="60" as="geometry" />
        </mxCell>
        <mxCell id="4YXhwaPJJYOt4yHIs_GL-18" value="end" style="strokeWidth=2;html=1;shape=mxgraph.flowchart.terminator;whiteSpace=wrap;" vertex="1" parent="WIyWlLk6GJQsqaUBKTNV-1">
          <mxGeometry x="540" y="500" width="100" height="60" as="geometry" />
        </mxCell>
      </root>
    </mxGraphModel>
  </diagram>
</mxfile>
